<?xml version="1.0" encoding="UTF-8" standalone="no"?>
<!-- Created with Inkscape (http://www.inkscape.org/) -->

<svg
   version="1.1"
   id="svg5913"
   xml:space="preserve"
   width="682.66669"
   height="682.66669"
   viewBox="0 0 682.66669 682.66669"
   xmlns="http://www.w3.org/2000/svg"
   xmlns:svg="http://www.w3.org/2000/svg"><defs
     id="defs5917"><clipPath
       clipPathUnits="userSpaceOnUse"
       id="clipPath5935"><path
         d="M 0,512 H 512 V 0 H 0 Z"
         id="path5933" /></clipPath></defs><g
     id="g5919"
     transform="matrix(1.3333333,0,0,-1.3333333,0,682.66667)"><g
       id="g5921"
       transform="translate(242.7651,71.9434)"><path
         d="M 0,0 H 54.235"
         style="fill:none;stroke:#000000;stroke-width:15;stroke-linecap:round;stroke-linejoin:round;stroke-miterlimit:10;stroke-dasharray:none;stroke-opacity:1"
         id="path5923" /></g><g
       id="g5925"
       transform="translate(76.5376,71.9434)"><path
         d="M 0,0 H 31.143"
         style="fill:none;stroke:#000000;stroke-width:15;stroke-linecap:round;stroke-linejoin:round;stroke-miterlimit:10;stroke-dasharray:none;stroke-opacity:1"
         id="path5927" /></g><g
       id="g5929"><g
         id="g5931"
         clip-path="url(#clipPath5935)"><g
           id="g5937"
           transform="translate(30.3989,243.4951)"><path
             d="m 0,0 c -1.918,-5.328 -2.899,-10.947 -2.899,-16.61 v -89.681"
             style="fill:none;stroke:#000000;stroke-width:15;stroke-linecap:round;stroke-linejoin:round;stroke-miterlimit:10;stroke-dasharray:none;stroke-opacity:1"
             id="path5939" /></g><g
           id="g5941"
           transform="translate(297,408.9434)"><path
             d="m 0,0 h -166.169 c -24.522,0 -46.409,-15.383 -54.715,-38.455"
             style="fill:none;stroke:#000000;stroke-width:15;stroke-linecap:round;stroke-linejoin:round;stroke-miterlimit:10;stroke-dasharray:none;stroke-opacity:1"
             id="path5943" /></g><g
           id="g5945"
           transform="translate(62.0767,331.4893)"><path
             d="m 0,0 -31.678,-87.994 c -0.944,-2.623 -1.658,-5.318 -2.143,-8.052 H 87.611 c 26.682,0 48.312,21.63 48.312,48.312 V 77.454 H 68.754 C 44.232,77.454 22.346,62.071 14.04,38.999"
             style="fill:none;stroke:#000000;stroke-width:15;stroke-linecap:round;stroke-linejoin:round;stroke-miterlimit:10;stroke-dasharray:none;stroke-opacity:1"
             id="path5947" /></g><g
           id="g5949"
           transform="translate(297,452)"><path
             d="m 0,0 h -114.508 c -17.574,0 -33.138,-11.346 -38.516,-28.078 l -4.814,-14.979 H 0"
             style="fill:none;stroke:#000000;stroke-width:15;stroke-linecap:round;stroke-linejoin:round;stroke-miterlimit:10;stroke-dasharray:none;stroke-opacity:1"
             id="path5951" /></g><g
           id="g5953"
           transform="translate(297,157.8164)"><path
             d="M 0,0 V 346.684 H 207.5"
             style="fill:none;stroke:#000000;stroke-width:15;stroke-linecap:round;stroke-linejoin:round;stroke-miterlimit:10;stroke-dasharray:none;stroke-opacity:1"
             id="path5955" /></g><g
           id="g5957"
           transform="translate(504.5,71.9434)"><path
             d="M 0,0 H -207.5 V 42.985"
             style="fill:none;stroke:#000000;stroke-width:15;stroke-linecap:round;stroke-linejoin:round;stroke-miterlimit:10;stroke-dasharray:none;stroke-opacity:1"
             id="path5959" /></g><g
           id="g5961"
           transform="translate(70.2261,71.9434)"><path
             d="m 0,0 h -49.63 c -7.233,0 -13.096,5.863 -13.096,13.096 v 39.068 c 0,7.233 5.863,13.097 13.096,13.097 H 0 c 7.233,0 13.096,-5.864 13.096,-13.097 V 13.096 C 13.096,5.863 7.233,0 0,0 Z"
             style="fill:none;stroke:#000000;stroke-width:15;stroke-linecap:round;stroke-linejoin:round;stroke-miterlimit:10;stroke-dasharray:none;stroke-opacity:1"
             id="path5963" /></g><g
           id="g5965"
           transform="translate(49.3267,165.8174)"><path
             d="m 0,0 h -21.341 v 41.183 h 46.006 c 5.462,0 9.04,-5.716 6.654,-10.629 L 23.681,14.825 C 19.277,5.757 10.081,0 0,0 Z"
             style="fill:none;stroke:#000000;stroke-width:15;stroke-linecap:round;stroke-linejoin:round;stroke-miterlimit:10;stroke-dasharray:none;stroke-opacity:1"
             id="path5967" /></g><g
           id="g5969"
           transform="translate(238.3179,72.7607)"><path
             d="m 0,0 c 0,-36.042 -29.244,-65.261 -65.318,-65.261 -36.075,0 -65.319,29.219 -65.319,65.261 0,36.043 29.244,65.262 65.319,65.262 C -29.244,65.262 0,36.043 0,0 Z"
             style="fill:none;stroke:#000000;stroke-width:15;stroke-linecap:round;stroke-linejoin:round;stroke-miterlimit:10;stroke-dasharray:none;stroke-opacity:1"
             id="path5971" /></g><g
           id="g5973"
           transform="translate(172.9995,38.9531)"><path
             d="m 0,0 c -18.658,0 -33.838,15.166 -33.838,33.808 0,18.641 15.18,33.808 33.838,33.808 18.658,0 33.838,-15.167 33.838,-33.808 C 33.838,15.166 18.658,0 0,0 Z"
             style="fill:none;stroke:#000000;stroke-width:15;stroke-linecap:round;stroke-linejoin:round;stroke-miterlimit:10;stroke-dasharray:none;stroke-opacity:1"
             id="path5975" /></g></g></g></g></svg>
