<?xml version="1.0" encoding="UTF-8"?>
<svg xmlns="http://www.w3.org/2000/svg" xmlns:xlink="http://www.w3.org/1999/xlink" version="1.1" id="Capa_1" x="0px" y="0px" viewBox="0 0 512 512" style="enable-background:new 0 0 512 512;" xml:space="preserve" width="512" height="512">
<g>
	<g>
		
			<line style="fill:none;stroke:#000000;stroke-width:15;stroke-linecap:round;stroke-linejoin:round;stroke-miterlimit:10;" x1="119.557" y1="482.85" x2="84.015" y2="482.85"/>
		
			<line style="fill:none;stroke:#000000;stroke-width:15;stroke-linecap:round;stroke-linejoin:round;stroke-miterlimit:10;" x1="196.563" y1="482.85" x2="161.022" y2="482.85"/>
		
			<line style="fill:none;stroke:#000000;stroke-width:15;stroke-linecap:round;stroke-linejoin:round;stroke-miterlimit:10;" x1="311.904" y1="482.85" x2="238.028" y2="482.85"/>
		<path style="fill:none;stroke:#000000;stroke-width:15;stroke-linecap:round;stroke-linejoin:round;stroke-miterlimit:10;" d="&#10;&#9;&#9;&#9;M332.896,255.962h41.74c6.155,0,11.144,4.989,11.144,11.144V482.85h-42.113"/>
		<path style="fill:none;stroke:#000000;stroke-width:15;stroke-linecap:round;stroke-linejoin:round;stroke-miterlimit:10;" d="&#10;&#9;&#9;&#9;M42.55,482.85H18.644c-6.155,0-11.144-4.989-11.144-11.144v-204.6c0-6.155,4.989-11.144,11.144-11.144h42.499"/>
		<path style="fill:none;stroke:#000000;stroke-width:15;stroke-linecap:round;stroke-linejoin:round;stroke-miterlimit:10;" d="&#10;&#9;&#9;&#9;M435.728,482.85H385.78V308.191h67.762c7.337,0,14.201,3.647,18.34,9.746l28.745,42.349c2.523,3.717,3.873,8.115,3.873,12.617&#10;&#9;&#9;&#9;v98.765c0,6.175-4.973,11.182-11.107,11.182h-16.2"/>
		<g>
			<path style="fill:none;stroke:#000000;stroke-width:15;stroke-linecap:round;stroke-linejoin:round;stroke-miterlimit:10;" d="&#10;&#9;&#9;&#9;&#9;M429.064,308.191v65.824c0,6.175,4.973,11.182,11.107,11.182H504.5"/>
		</g>
		
			<ellipse style="fill:none;stroke:#000000;stroke-width:15;stroke-linecap:round;stroke-linejoin:round;stroke-miterlimit:10;" cx="456.46" cy="482.85" rx="20.733" ry="20.872"/>
		
			<line style="fill:none;stroke:#000000;stroke-width:15;stroke-linecap:round;stroke-linejoin:round;stroke-miterlimit:10;" x1="117.58" y1="309.559" x2="83.557" y2="351.537"/>
		
			<line style="fill:none;stroke:#000000;stroke-width:15;stroke-linecap:round;stroke-linejoin:round;stroke-miterlimit:10;" x1="7.5" y1="329.533" x2="385.78" y2="438.973"/>
		
			<ellipse style="fill:none;stroke:#000000;stroke-width:15;stroke-linecap:round;stroke-linejoin:round;stroke-miterlimit:10;" cx="140.289" cy="482.85" rx="20.733" ry="20.872"/>
		
			<ellipse style="fill:none;stroke:#000000;stroke-width:15;stroke-linecap:round;stroke-linejoin:round;stroke-miterlimit:10;" cx="217.296" cy="482.85" rx="20.733" ry="20.872"/>
		
			<ellipse style="fill:none;stroke:#000000;stroke-width:15;stroke-linecap:round;stroke-linejoin:round;stroke-miterlimit:10;" cx="63.283" cy="482.85" rx="20.733" ry="20.872"/>
	</g>
	<g>
		<path style="fill:none;stroke:#000000;stroke-width:15;stroke-linecap:round;stroke-linejoin:round;stroke-miterlimit:10;" d="&#10;&#9;&#9;&#9;M95.935,43.945c-36.598,29.531-60.016,74.743-60.016,125.432v0c0,88.973,72.127,161.1,161.1,161.1h0&#10;&#9;&#9;&#9;c88.973,0,161.1-72.127,161.1-161.1v0c0-88.973-72.127-161.099-161.1-161.099h0c-27.67,0-53.708,6.979-76.457,19.268"/>
		<g>
			<g>
				
					<line style="fill:none;stroke:#000000;stroke-width:15;stroke-linecap:round;stroke-linejoin:round;stroke-miterlimit:10;" x1="124.953" y1="139.396" x2="101.786" y2="139.396"/>
				
					<line style="fill:none;stroke:#000000;stroke-width:15;stroke-linecap:round;stroke-linejoin:round;stroke-miterlimit:10;" x1="124.953" y1="169.378" x2="80.579" y2="169.378"/>
				
					<line style="fill:none;stroke:#000000;stroke-width:15;stroke-linecap:round;stroke-linejoin:round;stroke-miterlimit:10;" x1="124.953" y1="199.359" x2="101.786" y2="199.359"/>
			</g>
			<g>
				<path style="fill:none;stroke:#000000;stroke-width:15;stroke-linecap:round;stroke-linejoin:round;stroke-miterlimit:10;" d="&#10;&#9;&#9;&#9;&#9;&#9;M276.855,233.528H166.939c-5.077,0-9.193-4.116-9.193-9.193V114.42c0-5.077,4.116-9.193,9.193-9.193h109.916&#10;&#9;&#9;&#9;&#9;&#9;c5.077,0,9.193,4.116,9.193,9.193v109.916C286.048,229.413,281.932,233.528,276.855,233.528z"/>
				<path style="fill:none;stroke:#000000;stroke-width:15;stroke-linecap:round;stroke-linejoin:round;stroke-miterlimit:10;" d="&#10;&#9;&#9;&#9;&#9;&#9;M234.559,154.134h-25.324c-2.822,0-5.11-2.288-5.11-5.11v-43.796h35.545v43.796&#10;&#9;&#9;&#9;&#9;&#9;C239.669,151.846,237.381,154.134,234.559,154.134z"/>
			</g>
		</g>
	</g>
</g>















</svg>
